<svg width="12" height="12" viewBox="0 0 12 12" fill="none" xmlns="http://www.w3.org/2000/svg">
<path d="M7.136 0.856001C7.07437 0.791407 7.00039 0.73985 6.91845 0.70439C6.83651 0.668929 6.74829 0.650288 6.65901 0.649573C6.56973 0.648857 6.48122 0.666081 6.39873 0.700224C6.31623 0.734366 6.24143 0.78473 6.17877 0.848328C6.11611 0.911927 6.06687 0.987463 6.03395 1.07046C6.00104 1.15345 5.98513 1.24221 5.98717 1.33146C5.98922 1.42072 6.00917 1.50866 6.04584 1.59006C6.08251 1.67146 6.13516 1.74467 6.20067 1.80533L9.78 5.33333H0.666667C0.489856 5.33333 0.320286 5.40357 0.195262 5.5286C0.0702379 5.65362 0 5.82319 0 6C0 6.17681 0.0702379 6.34638 0.195262 6.47141C0.320286 6.59643 0.489856 6.66667 0.666667 6.66667H9.77667L6.2 10.19C6.0804 10.3153 6.0143 10.4823 6.01569 10.6556C6.01708 10.8288 6.08585 10.9947 6.20744 11.1181C6.32903 11.2415 6.49389 11.3127 6.66709 11.3167C6.84029 11.3207 7.00823 11.2571 7.13533 11.1393L11.752 6.59133C11.8306 6.51381 11.893 6.42143 11.9356 6.31958C11.9782 6.21772 12.0002 6.10841 12.0002 5.998C12.0002 5.88759 11.9782 5.77828 11.9356 5.67643C11.893 5.57457 11.8306 5.48219 11.752 5.40467L7.13533 0.856001H7.136Z" fill="black"/>
</svg>
