<svg width="17" height="17" viewBox="0 0 17 17" fill="none" xmlns="http://www.w3.org/2000/svg">
<path d="M0.210105 1.38699L0.293106 1.29299C0.465298 1.12081 0.694398 1.01738 0.937424 1.0021C1.18045 0.986819 1.4207 1.06074 1.61311 1.20999L1.70711 1.29299L8.00011 7.58499L14.2931 1.29299C14.3854 1.19748 14.4957 1.1213 14.6177 1.06889C14.7397 1.01648 14.8709 0.988893 15.0037 0.987739C15.1365 0.986585 15.2682 1.01189 15.3911 1.06217C15.514 1.11245 15.6256 1.1867 15.7195 1.28059C15.8134 1.37449 15.8876 1.48614 15.9379 1.60904C15.9882 1.73193 16.0135 1.86361 16.0124 1.99639C16.0112 2.12917 15.9836 2.26039 15.9312 2.38239C15.8788 2.5044 15.8026 2.61474 15.7071 2.70699L9.41511 8.99999L15.7071 15.293C15.8793 15.4652 15.9827 15.6943 15.998 15.9373C16.0133 16.1803 15.9394 16.4206 15.7901 16.613L15.7071 16.707C15.5349 16.8792 15.3058 16.9826 15.0628 16.9979C14.8198 17.0132 14.5795 16.9392 14.3871 16.79L14.2931 16.707L8.00011 10.415L1.70711 16.707C1.5185 16.8891 1.2659 16.9899 1.0037 16.9877C0.741507 16.9854 0.490695 16.8802 0.305287 16.6948C0.119879 16.5094 0.0147096 16.2586 0.0124312 15.9964C0.0101527 15.7342 0.110948 15.4816 0.293106 15.293L6.58511 8.99999L0.293106 2.70699C0.120929 2.5348 0.0174975 2.3057 0.00221635 2.06267C-0.0130648 1.81964 0.0608542 1.57939 0.210105 1.38699L0.293106 1.29299L0.210105 1.38699Z" fill="black"/>
</svg>
