<svg width="16" height="16" viewBox="0 0 16 16" fill="none" xmlns="http://www.w3.org/2000/svg">
<path d="M11.75 6.25025C11.75 5.71975 11.5393 5.21098 11.1641 4.83586C10.789 4.46074 10.2802 4.25 9.74975 4.25H3.25025C2.98757 4.25 2.72747 4.30174 2.48479 4.40226C2.24211 4.50278 2.0216 4.65012 1.83586 4.83586C1.65012 5.0216 1.50278 5.24211 1.40226 5.48479C1.30174 5.72747 1.25 5.98757 1.25 6.25025V12.7498C1.25 13.0124 1.30174 13.2725 1.40226 13.5152C1.50278 13.7579 1.65012 13.9784 1.83586 14.1641C2.0216 14.3499 2.24211 14.4972 2.48479 14.5977C2.72747 14.6983 2.98757 14.75 3.25025 14.75H9.74975C10.0124 14.75 10.2725 14.6983 10.5152 14.5977C10.7579 14.4972 10.9784 14.3499 11.1641 14.1641C11.3499 13.9784 11.4972 13.7579 11.5977 13.5152C11.6983 13.2725 11.75 13.0124 11.75 12.7498V6.25025Z" stroke="black" stroke-width="1.33333" stroke-linecap="round" stroke-linejoin="round"/>
<path d="M13.991 11.5528C14.2213 11.4219 14.4128 11.2325 14.5461 11.0037C14.6794 10.7749 14.7497 10.5148 14.75 10.25V2.75C14.75 1.925 14.075 1.25 13.25 1.25H5.75C5.1875 1.25 4.8815 1.53875 4.625 2" stroke="black" stroke-width="1.33333" stroke-linecap="round" stroke-linejoin="round"/>
</svg>
