<svg width="21" height="21" viewBox="0 0 21 21" fill="none" xmlns="http://www.w3.org/2000/svg">
<path d="M10.5 0C9.12112 0 7.75574 0.278333 6.48182 0.819108C5.2079 1.35988 4.05039 2.15251 3.07538 3.15173C1.10625 5.16975 0 7.90677 0 10.7607C0 15.5169 3.0135 19.5522 7.182 20.9833C7.707 21.0694 7.875 20.7358 7.875 20.4453V18.6267C4.9665 19.2724 4.347 17.1848 4.347 17.1848C3.864 15.9366 3.1815 15.603 3.1815 15.603C2.226 14.9358 3.255 14.9573 3.255 14.9573C4.305 15.0327 4.8615 16.0657 4.8615 16.0657C5.775 17.7013 7.3185 17.2171 7.917 16.9588C8.0115 16.2594 8.2845 15.7859 8.5785 15.5169C6.2475 15.2479 3.801 14.3225 3.801 10.2226C3.801 9.02821 4.2 8.07051 4.8825 7.3065C4.7775 7.03749 4.41 5.91838 4.9875 4.46568C4.9875 4.46568 5.8695 4.17515 7.875 5.56327C8.7045 5.32654 9.6075 5.20817 10.5 5.20817C11.3925 5.20817 12.2955 5.32654 13.125 5.56327C15.1305 4.17515 16.0125 4.46568 16.0125 4.46568C16.59 5.91838 16.2225 7.03749 16.1175 7.3065C16.8 8.07051 17.199 9.02821 17.199 10.2226C17.199 14.3332 14.742 15.2371 12.4005 15.5061C12.7785 15.8397 13.125 16.4961 13.125 17.4969V20.4453C13.125 20.7358 13.293 21.0802 13.8285 20.9833C17.997 19.5414 21 15.5169 21 10.7607C21 9.34757 20.7284 7.94829 20.2007 6.64275C19.6731 5.3372 18.8996 4.15095 17.9246 3.15173C16.9496 2.15251 15.7921 1.35988 14.5182 0.819108C13.2443 0.278333 11.8789 0 10.5 0Z" fill="#969696"/>
</svg>
