<svg width="19" height="20" viewBox="0 0 19 20" fill="none" xmlns="http://www.w3.org/2000/svg">
<path d="M17.026 15.001C14.264 19.785 8.147 21.424 3.363 18.662C2.07668 17.9212 0.972117 16.9023 0.13 15.68C0.0647436 15.5853 0.0221139 15.477 0.00540343 15.3632C-0.011307 15.2495 -0.00165096 15.1334 0.0336255 15.024C0.068902 14.9146 0.128855 14.8148 0.208853 14.7323C0.288852 14.6497 0.386754 14.5866 0.494999 14.548C4.262 13.2 6.28 11.638 7.451 9.40196C8.683 7.04896 9.002 4.47196 8.14 0.938956C8.1122 0.825242 8.11141 0.706601 8.13768 0.592526C8.16396 0.478451 8.21657 0.37211 8.29131 0.282013C8.36605 0.191917 8.46084 0.120567 8.5681 0.0736723C8.67536 0.0267781 8.79211 0.0056423 8.909 0.011956C10.4786 0.0964403 12.0058 0.551165 13.366 1.33896C18.15 4.10096 19.789 10.218 17.026 15.001Z" fill="#969696"/>
</svg>
