<svg width="19" height="19" viewBox="0 0 19 19" fill="none" xmlns="http://www.w3.org/2000/svg">
<path d="M7.51364 6.07538e-09C8.91162 -5.62529e-05 10.2818 0.390614 11.4695 1.12792C12.6573 1.86523 13.6153 2.91983 14.2355 4.1727C14.8557 5.42558 15.1134 6.82686 14.9795 8.21841C14.8455 9.60996 14.3254 10.9364 13.4776 12.048L18.2206 16.793C18.4 16.973 18.5041 17.2144 18.5119 17.4684C18.5196 17.7223 18.4304 17.9697 18.2624 18.1603C18.0944 18.3508 17.8601 18.4703 17.6072 18.4944C17.3542 18.5185 17.1016 18.4454 16.9006 18.29L16.8066 18.207L12.0616 13.464C11.1146 14.1861 10.0093 14.6723 8.83708 14.8824C7.66487 15.0925 6.45947 15.0204 5.32064 14.6721C4.18181 14.3238 3.14229 13.7094 2.2881 12.8795C1.4339 12.0497 0.789587 11.0285 0.408471 9.90019C0.0273548 8.77192 -0.0796063 7.56912 0.0964379 6.39131C0.272482 5.2135 0.726471 4.09454 1.42084 3.12703C2.1152 2.15951 3.02999 1.37126 4.08949 0.827486C5.14899 0.283715 6.32275 6.2855e-05 7.51364 6.07538e-09ZM7.51364 2C6.05495 2 4.65601 2.57946 3.62456 3.61091C2.59311 4.64236 2.01364 6.04131 2.01364 7.5C2.01364 8.95869 2.59311 10.3576 3.62456 11.3891C4.65601 12.4205 6.05495 13 7.51364 13C8.97233 13 10.3713 12.4205 11.4027 11.3891C12.4342 10.3576 13.0136 8.95869 13.0136 7.5C13.0136 6.04131 12.4342 4.64236 11.4027 3.61091C10.3713 2.57946 8.97233 2 7.51364 2Z" fill="black" fill-opacity="0.36"/>
</svg>
