<svg width="17" height="18" viewBox="0 0 17 18" fill="none" xmlns="http://www.w3.org/2000/svg">
<path d="M13.9998 0.00201416C14.4945 0.00210497 14.9815 0.124592 15.4173 0.358556C15.8531 0.59252 16.2243 0.930689 16.4977 1.34292C16.7711 1.75515 16.9383 2.22862 16.9843 2.72114C17.0303 3.21365 16.9537 3.7099 16.7614 4.16564C16.5691 4.62138 16.267 5.02245 15.882 5.3331C15.4971 5.64374 15.0413 5.85431 14.5552 5.94603C14.0691 6.03775 13.5679 6.00776 13.0962 5.85875C12.6245 5.70974 12.197 5.44634 11.8518 5.09201L6.39484 8.21201C6.53538 8.72829 6.53538 9.27274 6.39484 9.78901L11.8528 12.908C12.3622 12.3857 13.0446 12.0671 13.772 12.0119C14.4995 11.9566 15.2221 12.1685 15.8045 12.6078C16.3869 13.0472 16.7892 13.6838 16.9359 14.3985C17.0826 15.1131 16.9636 15.8567 16.6014 16.49C16.2391 17.1232 15.6583 17.6026 14.9679 17.8384C14.2775 18.0741 13.5249 18.0501 12.8509 17.7707C12.177 17.4913 11.6281 16.9757 11.307 16.3206C10.986 15.6655 10.9148 14.9158 11.1068 14.212L5.64984 11.092C5.23375 11.5191 4.69975 11.8125 4.11609 11.9345C3.53243 12.0566 2.92563 12.0018 2.37325 11.7772C1.82087 11.5527 1.34801 11.1685 1.01511 10.6738C0.682208 10.179 0.504395 9.5963 0.504395 9.00001C0.504395 8.40373 0.682208 7.82098 1.01511 7.32627C1.34801 6.83156 1.82087 6.44736 2.37325 6.22278C2.92563 5.9982 3.53243 5.94344 4.11609 6.0655C4.69975 6.18756 5.23375 6.4809 5.64984 6.90801L11.1068 3.78801C10.9863 3.34336 10.9698 2.87692 11.0586 2.42486C11.1473 1.97279 11.339 1.54725 11.6188 1.18122C11.8986 0.815196 12.2589 0.51852 12.6718 0.314197C13.0847 0.109874 13.5391 0.00339411 13.9998 0.00301409V0.00201416Z" fill="white"/>
</svg>
