<svg width="20" height="20" viewBox="0 0 20 20" fill="none" xmlns="http://www.w3.org/2000/svg">
<path d="M10 0C10.1989 0 10.3897 0.0790175 10.5303 0.21967C10.671 0.360322 10.75 0.551088 10.75 0.75V2.25C10.75 2.44891 10.671 2.63968 10.5303 2.78033C10.3897 2.92098 10.1989 3 10 3C9.80109 3 9.61032 2.92098 9.46967 2.78033C9.32902 2.63968 9.25 2.44891 9.25 2.25V0.75C9.25 0.551088 9.32902 0.360322 9.46967 0.21967C9.61032 0.0790175 9.80109 0 10 0ZM15 10C15 11.3261 14.4732 12.5979 13.5355 13.5355C12.5979 14.4732 11.3261 15 10 15C8.67392 15 7.40215 14.4732 6.46447 13.5355C5.52678 12.5979 5 11.3261 5 10C5 8.67392 5.52678 7.40215 6.46447 6.46447C7.40215 5.52678 8.67392 5 10 5C11.3261 5 12.5979 5.52678 13.5355 6.46447C14.4732 7.40215 15 8.67392 15 10ZM19.25 10.75C19.4489 10.75 19.6397 10.671 19.7803 10.5303C19.921 10.3897 20 10.1989 20 10C20 9.80109 19.921 9.61032 19.7803 9.46967C19.6397 9.32902 19.4489 9.25 19.25 9.25H17.75C17.5511 9.25 17.3603 9.32902 17.2197 9.46967C17.079 9.61032 17 9.80109 17 10C17 10.1989 17.079 10.3897 17.2197 10.5303C17.3603 10.671 17.5511 10.75 17.75 10.75H19.25ZM10 17C10.1989 17 10.3897 17.079 10.5303 17.2197C10.671 17.3603 10.75 17.5511 10.75 17.75V19.25C10.75 19.4489 10.671 19.6397 10.5303 19.7803C10.3897 19.921 10.1989 20 10 20C9.80109 20 9.61032 19.921 9.46967 19.7803C9.32902 19.6397 9.25 19.4489 9.25 19.25V17.75C9.25 17.5511 9.32902 17.3603 9.46967 17.2197C9.61032 17.079 9.80109 17 10 17ZM2.25 10.75C2.44891 10.75 2.63968 10.671 2.78033 10.5303C2.92098 10.3897 3 10.1989 3 10C3 9.80109 2.92098 9.61032 2.78033 9.46967C2.63968 9.32902 2.44891 9.25 2.25 9.25H0.75C0.551088 9.25 0.360322 9.32902 0.21967 9.46967C0.0790175 9.61032 0 9.80109 0 10C0 10.1989 0.0790175 10.3897 0.21967 10.5303C0.360322 10.671 0.551088 10.75 0.75 10.75H2.25ZM2.22 2.22C2.36063 2.07955 2.55125 2.00066 2.75 2.00066C2.94875 2.00066 3.13937 2.07955 3.28 2.22L4.78 3.72C4.91248 3.86217 4.9846 4.05022 4.98117 4.24452C4.97775 4.43882 4.89903 4.62421 4.76162 4.76162C4.62421 4.89903 4.43882 4.97775 4.24452 4.98117C4.05022 4.9846 3.86217 4.91248 3.72 4.78L2.22 3.28C2.07955 3.13937 2.00066 2.94875 2.00066 2.75C2.00066 2.55125 2.07955 2.36063 2.22 2.22ZM3.28 17.78C3.21134 17.8537 3.12854 17.9128 3.03654 17.9538C2.94454 17.9948 2.84523 18.0168 2.74452 18.0186C2.64382 18.0204 2.54379 18.0018 2.4504 17.9641C2.35701 17.9264 2.27218 17.8703 2.20096 17.799C2.12974 17.7278 2.0736 17.643 2.03588 17.5496C1.99816 17.4562 1.97963 17.3562 1.98141 17.2555C1.98319 17.1548 2.00523 17.0555 2.04622 16.9635C2.08721 16.8715 2.14631 16.7887 2.22 16.72L3.72 15.22C3.78866 15.1463 3.87146 15.0872 3.96346 15.0462C4.05546 15.0052 4.15477 14.9832 4.25548 14.9814C4.35618 14.9796 4.45621 14.9982 4.5496 15.0359C4.64299 15.0736 4.72782 15.1297 4.79904 15.201C4.87026 15.2722 4.9264 15.357 4.96412 15.4504C5.00184 15.5438 5.02037 15.6438 5.01859 15.7445C5.01681 15.8452 4.99477 15.9445 4.95378 16.0365C4.91279 16.1285 4.85369 16.2113 4.78 16.28L3.28 17.78ZM17.78 2.22C17.6394 2.07955 17.4488 2.00066 17.25 2.00066C17.0512 2.00066 16.8606 2.07955 16.72 2.22L15.22 3.72C15.0875 3.86217 15.0154 4.05022 15.0188 4.24452C15.0223 4.43882 15.101 4.62421 15.2384 4.76162C15.3758 4.89903 15.5612 4.97775 15.7555 4.98117C15.9498 4.9846 16.1378 4.91248 16.28 4.78L17.78 3.28C17.9205 3.13937 17.9993 2.94875 17.9993 2.75C17.9993 2.55125 17.9205 2.36063 17.78 2.22ZM16.72 17.78C16.7887 17.8537 16.8715 17.9128 16.9635 17.9538C17.0555 17.9948 17.1548 18.0168 17.2555 18.0186C17.3562 18.0204 17.4562 18.0018 17.5496 17.9641C17.643 17.9264 17.7278 17.8703 17.799 17.799C17.8703 17.7278 17.9264 17.643 17.9641 17.5496C18.0018 17.4562 18.0204 17.3562 18.0186 17.2555C18.0168 17.1548 17.9948 17.0555 17.9538 16.9635C17.9128 16.8715 17.8537 16.7887 17.78 16.72L16.28 15.22C16.2113 15.1463 16.1285 15.0872 16.0365 15.0462C15.9445 15.0052 15.8452 14.9832 15.7445 14.9814C15.6438 14.9796 15.5438 14.9982 15.4504 15.0359C15.357 15.0736 15.2722 15.1297 15.201 15.201C15.1297 15.2722 15.0736 15.357 15.0359 15.4504C14.9982 15.5438 14.9796 15.6438 14.9814 15.7445C14.9832 15.8452 15.0052 15.9445 15.0462 16.0365C15.0872 16.1285 15.1463 16.2113 15.22 16.28L16.72 17.78Z" fill="#969696"/>
</svg>
