<svg width="19" height="21" viewBox="0 0 19 21" fill="none" xmlns="http://www.w3.org/2000/svg">
<path d="M1 4.62222H2.81111M2.81111 4.62222H17.3M2.81111 4.62222V17.3C2.81111 17.7803 3.00192 18.241 3.34157 18.5806C3.68122 18.9203 4.14189 19.1111 4.62222 19.1111H13.6778C14.1581 19.1111 14.6188 18.9203 14.9584 18.5806C15.2981 18.241 15.4889 17.7803 15.4889 17.3V4.62222M5.52778 4.62222V2.81111C5.52778 2.33077 5.71859 1.87011 6.05824 1.53046C6.39789 1.19081 6.85855 1 7.33889 1H10.9611C11.4414 1 11.9021 1.19081 12.2418 1.53046C12.5814 1.87011 12.7722 2.33077 12.7722 2.81111V4.62222M7.33889 9.15V14.5833M10.9611 9.15V14.5833" stroke="#1E1E1E" stroke-width="1.81111" stroke-linecap="round" stroke-linejoin="round"/>
</svg>
